<svg width="40" height="40" viewBox="0 0 40 40" fill="none" xmlns="http://www.w3.org/2000/svg">
  <defs>
    <linearGradient id="grad1" x1="0%" y1="0%" x2="100%" y2="100%">
      <stop offset="0%" style="stop-color:#1A4A93;stop-opacity:1" />
      <stop offset="100%" style="stop-color:#3B85CB;stop-opacity:1" />
    </linearGradient>
  </defs>
  
  <!-- Background circle -->
  <circle cx="20" cy="20" r="18" fill="url(#grad1)" stroke="#0F1A33" stroke-width="2"/>
  
  <!-- Shield base -->
  <path d="M20 8L28 12V20C28 26 24 30 20 32C16 30 12 26 12 20V12L20 8Z" 
        fill="none" stroke="#ffffff" stroke-width="2" stroke-linejoin="round"/>
  
  <!-- Shield inner -->
  <path d="M20 10L26 13V20C26 24 23 27 20 29C17 27 14 24 14 20V13L20 10Z" 
        fill="rgba(255,255,255,0.1)"/>
  
  <!-- Eye/Scope -->
  <circle cx="20" cy="20" r="6" fill="none" stroke="#ffffff" stroke-width="1.5"/>
  <circle cx="20" cy="20" r="3" fill="#ffffff"/>
  <circle cx="20" cy="20" r="1" fill="#1A4A93"/>
  
  <!-- Crosshair lines -->
  <line x1="16" y1="20" x2="24" y2="20" stroke="#ffffff" stroke-width="0.5" opacity="0.7"/>
  <line x1="20" y1="16" x2="20" y2="24" stroke="#ffffff" stroke-width="0.5" opacity="0.7"/>
  
  <!-- Radar waves -->
  <circle cx="20" cy="20" r="10" fill="none" stroke="#ffffff" stroke-width="0.5" opacity="0.3"/>
  <circle cx="20" cy="20" r="14" fill="none" stroke="#ffffff" stroke-width="0.5" opacity="0.2"/>
</svg>
